<svg viewBox="0 0 90 80" fill="none" xmlns="http://www.w3.org/2000/svg">
          <path d="M77.6274 3.65995C68.2748 -2.17733 55.9623 -0.791312 44.9962 6.10453C34.0339 -0.787504 21.7214 -2.17353 12.3726 3.65995C-2.40398 12.8747 -4.20051 36.6199 8.36376 56.6906C17.6287 71.4875 32.1077 80.1578 45 79.9978C57.8923 80.1578 72.3751 71.4913 81.6362 56.6906C94.2005 36.6199 92.404 12.8747 77.6274 3.65995ZM15.1532 52.4525C12.5099 48.2297 10.5608 43.7708 9.35547 39.1977C8.22263 34.8912 7.79924 30.6874 8.10057 26.7045C8.66127 19.2908 11.686 13.5144 16.6141 10.4378C21.5459 7.36109 28.0722 7.18213 34.9913 9.92752C36.0326 10.3426 37.0625 10.8223 38.0847 11.3516C34.3963 14.6872 31.0054 18.7006 28.1218 23.3042C20.4856 35.5004 18.1665 49.0484 20.825 59.8738C18.7424 57.6349 16.8429 55.1484 15.1532 52.4525ZM80.6407 39.1977C79.4354 43.7708 77.4863 48.2297 74.843 52.4525C73.1533 55.1484 71.2537 57.6311 69.1673 59.8777C71.5474 50.1869 69.9378 38.3143 64.0943 27.1843C63.6824 26.3999 62.7326 26.1409 61.985 26.6093L43.7909 37.9602C43.0929 38.3943 42.8831 39.312 43.3179 40.005L45.9841 44.2659C46.4189 44.9627 47.3382 45.1721 48.0324 44.738L59.8261 37.3814C60.2228 38.5123 60.5737 39.6509 60.8789 40.797C62.0117 45.1036 62.4351 49.3073 62.1338 53.2902C61.5731 60.7039 58.5484 66.4803 53.6203 69.557C51.1563 71.0915 48.2955 71.9064 45.1869 71.9939C45.1221 71.9939 45.0534 71.9939 44.9886 71.9939C44.9275 71.9939 44.8665 71.9939 44.8093 71.9939C41.7006 71.9064 38.8399 71.0915 36.3759 69.557C31.444 66.4803 28.4231 60.7039 27.8624 53.2902C27.5611 49.3073 27.9845 45.1036 29.1173 40.797C30.3226 36.2239 32.2717 31.765 34.915 27.5422C37.5583 23.3194 40.7166 19.6144 44.3058 16.5302C47.6853 13.6248 51.286 11.4011 55.0049 9.92752C61.9278 7.17832 68.4541 7.36109 73.3821 10.4378C78.314 13.5144 81.3349 19.2908 81.8956 26.7045C82.2008 30.6874 81.7774 34.8912 80.6407 39.1977Z" fill="#00A4A6"></path>
        </svg>
